<svg xmlns="http://www.w3.org/2000/svg" viewBox="0 0 512 512" role="img" aria-label="Delta de l Ebre">
  <defs>
    <clipPath id="r"><rect width="512" height="512" rx="112"/></clipPath>
    <clipPath id="sea"><circle cx="256" cy="256" r="216"/></clipPath>
  </defs>
  <g clip-path="url(#r)">
    <rect width="512" height="512" fill="#eef4f5"/>
    <circle cx="256" cy="256" r="216" fill="#c5e3f1"/>
    <g clip-path="url(#sea)"><path d="M28 26 C68.3 25.7 229.3 24.3 269.5 26.0 C309.8 27.8 267.4 35.9 269.5 36.5 C271.6 37.1 281.2 31.3 281.8 29.5 C282.4 27.8 272.1 26.6 273.0 26.0 C273.9 25.4 284.7 23.9 287.0 26.0 C289.3 28.1 284.4 34.5 287.0 38.3 C289.6 42.1 297.0 41.8 302.8 48.8 C308.6 55.8 315.9 72.1 322.0 80.3 C328.1 88.5 334.8 95.5 339.5 97.8 C344.2 100.1 349.4 93.7 350.0 94.3 C350.6 94.9 343.3 100.1 343.0 101.3 C342.7 102.5 347.4 99.8 348.3 101.3 C349.2 102.8 347.1 108.3 348.3 110.0 C349.5 111.8 352.4 108.3 355.3 111.8 C358.2 115.3 362.3 126.6 365.8 131.0 C369.3 135.4 373.1 136.8 376.3 138.0 C379.5 139.2 381.8 138.6 385.0 138.0 C388.2 137.4 393.2 136.8 395.5 134.5 C397.8 132.2 396.7 125.5 399.0 124.0 C401.3 122.5 405.4 120.8 409.5 125.8 C413.6 130.8 421.8 145.6 423.5 153.8 C425.3 162.0 422.3 167.8 420.0 174.8 C417.7 181.8 416.8 187.4 409.5 195.8 C402.2 204.3 397.3 212.1 376.3 225.5 C355.3 238.9 303.9 261.7 283.5 276.3 C263.1 290.9 264.6 297.3 253.8 313.0 C243.0 328.8 230.5 356.2 218.8 370.8 C207.1 385.4 195.5 393.5 183.8 400.5 C172.1 407.5 158.7 410.8 148.8 412.8 C138.9 414.9 131.9 415.1 124.3 412.8 C116.7 410.5 108.0 402.9 103.3 398.8 C98.6 394.7 97.5 392.1 96.3 388.3 C95.1 384.5 94.8 378.3 96.3 376.0 C97.8 373.7 101.8 376.3 105.0 374.3 C108.2 372.3 114.0 367.6 115.5 363.8 C117.0 360.0 111.8 351.5 113.8 351.5 C115.8 351.5 123.1 361.8 127.8 363.8 C132.5 365.9 137.1 364.1 141.8 363.8 C146.5 363.5 150.9 364.1 155.8 362.0 C160.8 359.9 168.3 352.7 171.5 351.5 C174.7 350.3 173.5 355.0 175.0 355.0 C176.5 355.0 176.8 352.1 180.3 351.5 C183.8 350.9 193.1 350.9 196.0 351.5 C198.9 352.1 196.3 355.0 197.8 355.0 C199.3 355.0 203.4 351.5 204.8 351.5 C206.3 351.5 205.3 355.0 206.5 355.0 C207.7 355.0 211.2 352.7 211.8 351.5 C212.4 350.3 209.1 348.3 210.0 348.0 C210.9 347.7 215.5 350.7 217.0 349.8 C218.5 348.9 219.1 344.6 218.8 342.8 C218.5 341.1 218.2 339.6 215.3 339.3 C212.4 339.0 204.5 341.6 201.3 341.0 C198.1 340.4 199.2 336.4 196.0 335.8 C192.8 335.2 185.5 338.1 182.0 337.5 C178.5 336.9 177.0 332.6 175.0 332.3 C173.0 332.0 170.4 337.0 169.8 335.8 C169.2 334.6 169.8 327.1 171.5 325.3 C173.3 323.6 179.4 325.9 180.3 325.3 C181.2 324.7 177.1 323.6 176.8 321.8 C176.5 320.1 176.5 316.6 178.5 314.8 C180.5 313.1 187.3 313.6 189.0 311.3 C190.8 309.0 190.4 302.0 189.0 300.8 C187.6 299.6 184.4 304.3 180.3 304.3 C176.2 304.3 169.2 300.8 164.5 300.8 C159.8 300.8 154.9 303.1 152.3 304.3 C149.7 305.5 148.8 306.6 148.8 307.8 C148.8 309.0 155.5 311.3 152.3 311.3 C149.1 311.3 135.9 307.2 129.5 307.8 C123.1 308.4 115.0 313.1 113.8 314.8 C112.6 316.6 124.5 317.7 122.5 318.3 C120.5 318.9 104.7 317.1 101.5 318.3 C98.3 319.5 103.6 324.4 103.3 325.3 C103.0 326.2 100.4 326.1 99.8 323.5 C99.2 320.9 101.0 310.9 99.8 309.5 C98.6 308.1 93.7 312.8 92.8 314.8 C91.9 316.9 96.5 319.2 94.5 321.8 C92.5 324.4 87.2 323.2 80.5 330.5 C73.8 337.8 63.0 355.6 54.3 365.5 C45.5 375.4 32.4 446.3 28.0 390.0 C23.6 333.7 28.0 88.5 28.0 27.8 C28.0 -32.9 -12.3 26.3 28.0 26.0 Z" fill="#4f9d63"/><g fill="none" stroke="#173a63" stroke-width="9" stroke-linecap="round" stroke-linejoin="round"><path d="M60 250 C 150 244 250 206 330 188 C 372 179 405 178 423.5 153.8"/></g></g>
  </g>
</svg>